<svg xmlns="http://www.w3.org/2000/svg" xmlns:xlink="http://www.w3.org/1999/xlink" width="500" zoomAndPan="magnify" viewBox="0 0 375 374.999991" height="500" preserveAspectRatio="xMidYMid meet" version="1.0"><rect x="-37.5" width="450" fill="#ffffff" y="-37.499999" height="449.999989" fill-opacity="1"/><rect x="-37.5" width="450" fill="#ffffff" y="-37.499999" height="449.999989" fill-opacity="1"/><path fill="#000000" d="M 247.59375 93.75 L 127.40625 93.75 L 75 146.15625 L 75 238.21875 L 127.40625 290.625 L 131.25 290.625 L 131.25 313.21875 L 146.15625 328.125 L 228.84375 328.125 L 243.75 313.21875 L 243.75 290.625 L 247.59375 290.625 L 300 238.21875 L 300 146.15625 Z M 187.5 305.53125 L 183.65625 309.375 L 153.84375 309.375 L 150 305.53125 L 150 290.625 L 187.5 290.625 Z M 243.75 230.53125 L 202.40625 271.875 L 178.125 271.875 L 178.125 247.59375 L 206.25 219.46875 L 206.25 196.875 L 187.5 196.875 L 187.5 211.78125 L 168.75 230.53125 L 150 211.78125 L 150 196.875 L 131.25 196.875 L 131.25 219.46875 L 159.375 247.59375 L 159.375 271.875 L 135.09375 271.875 L 93.75 230.53125 L 93.75 153.84375 L 135.09375 112.5 L 202.40625 112.5 L 243.75 153.84375 Z M 243.75 230.53125 " fill-opacity="1" fill-rule="nonzero"/><path fill="#000000" d="M 178.125 46.875 L 196.875 46.875 L 196.875 75 L 178.125 75 Z M 178.125 46.875 " fill-opacity="1" fill-rule="nonzero"/><path fill="#000000" d="M 265.246094 96.496094 L 283.996094 77.746094 L 297.253906 91.003906 L 278.503906 109.753906 Z M 265.246094 96.496094 " fill-opacity="1" fill-rule="nonzero"/><path fill="#000000" d="M 77.746094 91.003906 L 91.003906 77.746094 L 109.753906 96.496094 L 96.496094 109.753906 Z M 77.746094 91.003906 " fill-opacity="1" fill-rule="nonzero"/></svg>